<svg xmlns="http://www.w3.org/2000/svg" xmlns:xlink="http://www.w3.org/1999/xlink" width="1311.543" height="720.647" viewBox="0 0 1311.543 720.647"><defs><style>.a{fill:#ff6752;}.b{opacity:0.15;mix-blend-mode:multiply;isolation:isolate;fill:url(#a);}</style><linearGradient id="a" x1="0.106" y1="0.858" x2="0.863" y2="-0.105" gradientUnits="objectBoundingBox"><stop offset="0" stop-color="#feb53a"/><stop offset="1" stop-color="#d65c15"/></linearGradient></defs><g transform="translate(350.401 496.485)"><path class="a" d="M13245.6,268.012s371.129,121.09,529.963-48.75,134.646-291.156,439.73-261.277,341.85-97.274,341.85-97.274S14247.34-328,14234.762-328s-949.848,114.8-949.848,114.8Z" transform="translate(-13596 -85.686)"/><path class="b" d="M13406.668,212.391s290.131,165.6,514.105-175.13c124.975-190.125,355.029-137.047,511.092-80.476,123.957,44.934,191.855-135.243,191.855-135.243l-81.691-150.028s-1104.389,39.315-1109.154,39.315S13406.668,212.391,13406.668,212.391Z" transform="translate(-13677.915 -85.439)"/><path class="b" d="M13406.668,212.391s121.766,262.039,345.74-78.689,642.355-3.184,839.762-118.731-50.141-343.456-50.141-343.456-1104.389,39.315-1109.154,39.315S13406.668,212.391,13406.668,212.391Z" transform="translate(-13719.686 -168)"/></g></svg>