<svg xmlns="http://www.w3.org/2000/svg" width="37.654" height="37.743" viewBox="0 0 37.654 37.743"><defs><style>.a{fill:#b1bbcd;}</style></defs><path class="a" d="M37.149,1.861A2.024,2.024,0,0,0,35.709.288a1.987,1.987,0,0,0-2.016.576C31.367,3.4,27.727,7.31,23.489,11.734a12.5,12.5,0,0,0-4.438-.746,12.6,12.6,0,0,0-4.445.753C10.352,7.3,6.719,3.39,4.393.857A1.992,1.992,0,0,0,2.377.281,2.024,2.024,0,0,0,.937,1.854,34.113,34.113,0,0,0,.435,12.6a24.226,24.226,0,0,0,2.119,7.436A17.86,17.86,0,0,0,6.5,25.586a14.662,14.662,0,0,0,2.1,5.575,17.008,17.008,0,0,0,6.417,5.767,8.456,8.456,0,0,0,8.049,0,17.13,17.13,0,0,0,6.417-5.767,14.583,14.583,0,0,0,2.09-5.56,17.723,17.723,0,0,0,3.958-5.568A24.494,24.494,0,0,0,37.644,12.6,33.829,33.829,0,0,0,37.149,1.861Zm-.96,10.485a23.009,23.009,0,0,1-1.957,6.971,18.61,18.61,0,0,1-2.452,3.914,20.782,20.782,0,0,0-.3-3.818.737.737,0,0,0-1.455.244,14.846,14.846,0,0,1-1.794,10.707,15.685,15.685,0,0,1-5.87,5.257,6.979,6.979,0,0,1-6.646,0,15.509,15.509,0,0,1-5.87-5.257A14.846,14.846,0,0,1,8.056,19.657.737.737,0,1,0,6.6,19.413a20.625,20.625,0,0,0-.3,3.8,18.64,18.64,0,0,1-2.444-3.9A23.008,23.008,0,0,1,1.9,12.346a32.688,32.688,0,0,1,.487-10.2.535.535,0,0,1,.391-.436.492.492,0,0,1,.524.155C5.575,4.32,9.075,8.093,13.173,12.369a9.4,9.4,0,0,0-1.44.938.735.735,0,0,0,.458,1.314.761.761,0,0,0,.458-.155,8.474,8.474,0,0,1,1.994-1.159.82.82,0,0,0,.118-.052,11.394,11.394,0,0,1,4.253-.8H19.1a11.321,11.321,0,0,1,4.224.79.677.677,0,0,0,.17.066,8.572,8.572,0,0,1,1.972,1.152.736.736,0,1,0,.908-1.159,9.4,9.4,0,0,0-1.44-.938c4.091-4.275,7.6-8.049,9.858-10.508a.522.522,0,0,1,.524-.155.547.547,0,0,1,.391.436A32.675,32.675,0,0,1,36.189,12.346Z" transform="translate(-0.215 -0.205)"/><path class="a" d="M48.776,73.142a3.581,3.581,0,0,1-.569.177.066.066,0,0,0-.037.007,2.88,2.88,0,0,1-1.735-.126c-.007,0-.015-.007-.022-.007-.03-.015-.059-.022-.089-.037a.842.842,0,0,1-.14-.074,3.21,3.21,0,0,1-.82-.635v-.384c.162-.1.362-.214.554-.354.834-.569,1.218-1.093,1.218-1.632a1.344,1.344,0,0,0-1.049-1.314,7.251,7.251,0,0,0-2.983,0,1.344,1.344,0,0,0-1.049,1.314c0,.546.391,1.063,1.218,1.632.214.148.428.273.6.377v.362a3.35,3.35,0,0,1-.82.635c-.089.044-.177.089-.273.126l-.111.044h-.007a2.745,2.745,0,0,1-1.307.133h-.022a.57.57,0,0,0-.111-.015.2.2,0,0,0-.066-.007l-.089-.022a4.166,4.166,0,0,1-.613-.192.737.737,0,0,0-.554,1.366,2.6,2.6,0,0,0,.31.111,4.354,4.354,0,0,0,4.357,2.8,4.349,4.349,0,0,0,4.342-2.762c.133-.044.266-.089.406-.148a.737.737,0,0,0,.406-.96A.713.713,0,0,0,48.776,73.142Z" transform="translate(-25.732 -44.703)"/><path class="a" d="M38.064,59.5a.738.738,0,0,0-1.27-.753,2.758,2.758,0,0,1-2.636,1.167.734.734,0,0,0-.827.635.746.746,0,0,0,.635.834,2.961,2.961,0,0,0,.48.03A4.086,4.086,0,0,0,38.064,59.5Z" transform="translate(-21.754 -38.053)"/><path class="a" d="M65.01,59.916a2.8,2.8,0,0,1-2.636-1.174.738.738,0,0,0-1.27.753,4.089,4.089,0,0,0,3.626,1.912,2.962,2.962,0,0,0,.48-.03.738.738,0,1,0-.2-1.462Z" transform="translate(-39.758 -38.05)"/></svg>